<svg width="256" height="256" viewBox="0 0 256 256" version="1.1" xmlns="http://www.w3.org/2000/svg" xmlns:xlink="http://www.w3.org/1999/xlink">
<title>i-ipad</title>
<desc>Created using Figma</desc>
<g id="Canvas" transform="translate(-1654 308)">
<clipPath id="clip-0" clip-rule="evenodd">
<path d="M 1654 -308L 1910 -308L 1910 -52L 1654 -52L 1654 -308Z" fill="#FFFFFF"/>
</clipPath>
<g id="i-ipad" clip-path="url(#clip-0)">
<g id="icon" opacity="0.9">
<g id="ipad">
<g id="Subtract">
<use xlink:href="#path0_fill" transform="matrix(-0.0716458 -0.99743 0.99743 -0.0716458 1686.85 -122.581)" fill="#FFFFFF"/>
</g>
<g id="Ellipse">
<use xlink:href="#path1_fill" transform="matrix(-0.0716458 -0.99743 0.99743 -0.0716458 1806.36 -178.469)" fill="#FFFFFF" fill-opacity="0.6"/>
</g>
<g id="Rectangle 2">
<use xlink:href="#path2_fill" transform="matrix(-0.0716458 -0.99743 0.99743 -0.0716458 1694.54 -131.481)" fill="#FFFFFF" fill-opacity="0.2"/>
</g>
</g>
<g id="pencil">
<g id="Subtract">
<use xlink:href="#path3_fill" transform="matrix(0.919941 -0.392056 0.390403 0.920644 1833.03 -216.807)" fill="#FFFFFF"/>
</g>
<g id="Rectangle 3.1">
<use xlink:href="#path4_fill" transform="matrix(0.919941 -0.392056 0.390403 0.920644 1831.87 -223.097)" fill="#FFFFFF" fill-opacity="0.8"/>
</g>
<g id="Rectangle 4">
<use xlink:href="#path5_fill" transform="matrix(0.919941 -0.392056 0.390403 0.920644 1870.67 -128.048)" fill="#FFFFFF" fill-opacity="0.5"/>
</g>
<g id="Vector">
<use xlink:href="#path6_fill" transform="matrix(-0.919941 0.392056 -0.390403 -0.920644 1876.63 -126.063)" fill="#FFFFFF"/>
</g>
</g>
</g>
</g>
</g>
<defs>
<path id="path0_fill" fill-rule="evenodd" d="M 0 5.53699C -1.87715e-16 2.479 2.48521 1.8725e-16 5.55087 0L 97.1402 0C 100.206 -1.8725e-16 102.691 2.479 102.691 5.53699L 102.691 130.12C 102.691 133.178 100.206 135.657 97.1402 135.657L 5.55087 135.657C 2.48521 135.657 1.87715e-16 133.178 0 130.12L 0 5.53699ZM 8.32629 8.30554L 94.3647 8.30554L 94.3647 120.431L 8.32629 120.431L 8.32629 8.30554ZM 52.0394 132.889C 54.7218 132.889 56.8964 130.72 56.8964 128.044C 56.8964 125.368 54.7218 123.199 52.0394 123.199C 49.3569 123.199 47.1824 125.368 47.1824 128.044C 47.1824 130.72 49.3569 132.889 52.0394 132.889Z"/>
<path id="path1_fill" d="M 9.71402 4.84491C 9.71402 7.52068 7.53946 9.68982 4.85701 9.68982C 2.17456 9.68982 0 7.52068 0 4.84491C 0 2.16914 2.17456 0 4.85701 0C 7.53946 0 9.71402 2.16914 9.71402 4.84491Z"/>
<path id="path2_fill" d="M 0 0L 86.0385 0L 86.0385 112.125L 0 112.125L 0 0Z"/>
<path id="path3_fill" fill-rule="evenodd" d="M 5.53923 0L 1.38486 7.63033e-06L 0.0959254 4.51901C 0.0323306 4.74203 7.5481e-05 4.97281 0.00011241 5.20473L 0 96.4096L 6.92395 96.4096L 6.92406 5.20474C 6.92403 4.9728 6.89179 4.74204 6.82814 4.51901L 5.53923 0ZM 6.92396 101.958L 6.67458e-06 101.958L 2.08209e-05 109.169C 4.48721e-05 110.549 1.11936 111.669 2.50004 111.669L 4.42408 111.669C 5.80476 111.669 6.924 110.549 6.92397 109.169L 6.92396 101.958Z"/>
<path id="path4_fill" d="M 4.15437 5.54875L 0 5.54875L 1.21713 0.67179C 1.31566 0.27701 1.6703 0 2.07719 0C 2.48407 0 2.83871 0.27701 2.93724 0.67179L 4.15437 5.54875Z"/>
<path id="path5_fill" d="M 0 0L 6.92395 0L 6.92395 5.54875L 0 5.54875L 0 0Z"/>
<path id="path6_fill" d="M 2.44038 2.16208C 2.39563 2.25901 2.34266 2.34823 2.28128 2.43026C 2.19762 2.54209 2.12912 2.6195 2.07633 2.66248C 1.9945 2.73304 1.90682 2.76917 1.81293 2.77123C 1.74553 2.77123 1.66424 2.75325 1.56963 2.71677C 1.4747 2.68046 1.38746 2.66248 1.30769 2.66248C 1.22403 2.66248 1.1343 2.68046 1.03833 2.71677C 0.942213 2.75325 0.864782 2.77226 0.805581 2.77414C 0.715547 2.77774 0.625804 2.74057 0.536226 2.66248C 0.479053 2.61573 0.40754 2.53558 0.321871 2.42204C 0.229955 2.3008 0.154387 2.1602 0.0951858 1.99991C 0.0317834 1.82677 8.36166e-09 1.65911 8.36166e-09 1.4968C 8.36166e-09 1.31087 0.0428528 1.15051 0.128686 1.01613C 0.196144 0.908187 0.285886 0.82304 0.398206 0.760533C 0.510525 0.698026 0.631887 0.666173 0.762582 0.664135C 0.834095 0.664135 0.927874 0.684874 1.04441 0.725632C 1.16062 0.766527 1.23524 0.787266 1.26796 0.787266C 1.29242 0.787266 1.37531 0.763016 1.51583 0.714672C 1.64872 0.669838 1.76087 0.651274 1.85275 0.658586C 2.10172 0.677424 2.28877 0.769438 2.41316 0.935211C 2.1905 1.0617 2.08035 1.23886 2.08254 1.46613C 2.08455 1.64315 2.15305 1.79046 2.28767 1.90743C 2.34868 1.96172 2.41682 2.00367 2.49262 2.03347C 2.47618 2.07817 2.45883 2.12098 2.44038 2.16208ZM 1.86938 0.055503C 1.86938 0.194254 1.81531 0.323805 1.70754 0.443716C 1.57748 0.586266 1.42017 0.668639 1.24958 0.655641C 1.24741 0.638995 1.24615 0.621476 1.24615 0.603066C 1.24615 0.469866 1.308 0.327315 1.41783 0.210761C 1.47267 0.151747 1.54241 0.102678 1.62698 0.0635347C 1.71137 0.0249755 1.7912 0.00365111 1.86627 1.24123e-09C 1.86846 0.0185484 1.86938 0.0371002 1.86938 0.055503Z"/>
</defs>
</svg>
