<svg width="256" height="256" viewBox="0 0 256 256" version="1.1" xmlns="http://www.w3.org/2000/svg" xmlns:xlink="http://www.w3.org/1999/xlink">
<title>i-oculus</title>
<desc>Created using Figma</desc>
<g id="Canvas" transform="translate(-1062 308)">
<clipPath id="clip-0" clip-rule="evenodd">
<path d="M 1062 -308L 1318 -308L 1318 -52L 1062 -52L 1062 -308Z" fill="#FFFFFF"/>
</clipPath>
<g id="i-oculus" clip-path="url(#clip-0)">
<g id="icon">
<g id="Group">
<g id="Vector">
<use xlink:href="#path0_fill" transform="translate(1106 -239)" fill="#FFFFFF" fill-opacity="0.9"/>
</g>
</g>
</g>
</g>
</g>
<defs>
<path id="path0_fill" d="M 42.0017 49C 34.2804 49 28.0012 55.279 28.0012 63C 28.0012 64.932 29.5692 66.5 31.5013 66.5C 33.4334 66.5 35.0015 64.932 35.0015 63C 35.0015 59.143 38.1376 56 42.0017 56C 43.9338 56 45.5019 54.432 45.5019 52.5C 45.5019 50.568 43.9338 49 42.0017 49ZM 126.005 49C 118.284 49 112.005 55.279 112.005 63C 112.005 64.932 113.573 66.5 115.505 66.5C 117.437 66.5 119.005 64.932 119.005 63C 119.005 59.143 122.141 56 126.005 56C 127.937 56 129.505 54.432 129.505 52.5C 129.505 50.568 127.937 49 126.005 49ZM 153.642 14.315C 152.13 6.195 145.06 0 136.506 0L 31.5013 0C 22.94 0 15.8277 6.188 14.3296 14.322C 6.19526 15.827 0 22.939 0 31.5L 0 94.5C 0 104.146 7.85433 112 17.5007 112L 52.5022 112C 58.0674 112 61.3856 108.913 63.8287 105L 104.171 105C 106.614 108.913 109.933 112 115.498 112L 150.499 112C 160.153 112 168 104.146 168 94.5L 168 31.5C 168.007 22.925 161.805 15.799 153.642 14.315ZM 42.0017 84C 30.4233 84 21.0009 74.578 21.0009 63C 21.0009 51.422 30.4233 42 42.0017 42C 53.5802 42 63.0026 51.422 63.0026 63C 63.0026 74.578 53.5802 84 42.0017 84ZM 67.3918 98C 70.8079 90.454 73.8741 84 84.0175 84C 94.1609 84 97.2201 90.454 100.636 98L 67.3918 98ZM 21.6029 14C 23.045 9.926 26.9441 7 31.5013 7L 136.506 7C 141.07 7 144.962 9.926 146.404 14L 21.6029 14ZM 126.005 84C 114.427 84 105.004 74.578 105.004 63C 105.004 51.422 114.427 42 126.005 42C 137.584 42 147.006 51.422 147.006 63C 147.006 74.578 137.584 84 126.005 84Z"/>
</defs>
</svg>
