<svg width="256" height="256" viewBox="0 0 256 256" version="1.1" xmlns="http://www.w3.org/2000/svg" xmlns:xlink="http://www.w3.org/1999/xlink">
<title>i-ps4</title>
<desc>Created using Figma</desc>
<g id="Canvas" transform="translate(-1950 308)">
<clipPath id="clip-0" clip-rule="evenodd">
<path d="M 1950 -308L 2206 -308L 2206 -52L 1950 -52L 1950 -308Z" fill="#FFFFFF"/>
</clipPath>
<g id="i-ps4" clip-path="url(#clip-0)">
<g id="icon" opacity="0.9">
<g id="Vector">
<use xlink:href="#path0_fill" transform="translate(2071 -185)" fill="#FFFFFF"/>
</g>
<g id="Vector">
<use xlink:href="#path1_fill" transform="translate(1990 -234)" fill="#FFFFFF"/>
</g>
<g id="Vector">
<use xlink:href="#path2_fill" transform="translate(2070.64 -209.382)" fill="#FFFFFF"/>
</g>
</g>
</g>
</g>
<defs>
<path id="path0_fill" d="M 6.5 2.20615e-06C 2.91555 2.20615e-06 -1.94959e-06 2.9156 -1.94959e-06 6.50011C -1.94959e-06 10.0844 2.91555 13 6.5 13C 10.0844 13 13 10.0844 13 6.50011C 13 2.9156 10.0844 2.20615e-06 6.5 2.20615e-06ZM 4.83187 8.94371C 4.82935 8.98868 4.73793 9.05551 4.68014 9.06581C 3.65379 9.23813 2.65582 9.1276 1.68621 8.75206C 1.60257 8.71991 1.52419 8.66968 1.45084 8.61819C 1.08183 8.35719 1.08183 8.00981 1.45988 7.7694C 1.62442 7.66391 1.798 7.56745 1.98083 7.50062C 2.91198 7.15724 3.84818 6.82415 4.83208 6.47068C 4.83208 6.81659 4.83859 7.13412 4.8243 7.45187C 4.82178 7.49558 4.72133 7.5498 4.65724 7.57271C 4.14154 7.76184 3.62185 7.94193 3.10615 8.13212C 2.98658 8.17604 2.87731 8.25043 2.76404 8.3097C 2.76656 8.33807 2.76909 8.36749 2.77056 8.39586C 2.88382 8.43557 2.9994 8.51417 3.11015 8.5064C 3.42915 8.48454 3.75046 8.44734 4.0619 8.37778C 4.31386 8.32125 4.55448 8.20924 4.8386 8.10774C 4.83839 8.40868 4.84595 8.67745 4.83187 8.94371ZM 6.92848 3.48931C 6.89234 3.57421 6.90264 3.68096 6.90264 3.77868C 6.90138 5.77467 6.90264 7.77066 6.90264 9.76813C 6.90264 9.86311 6.90264 9.95705 6.90264 10.0882C 6.31739 9.90157 5.77332 9.73198 5.23198 9.55314C 5.18953 9.53906 5.15108 9.47203 5.13805 9.42201C 5.12124 9.35897 5.13175 9.28689 5.13175 9.22006C 5.13427 6.86261 5.13679 4.50411 5.13952 2.14646C 5.13952 2.06408 5.13952 1.98191 5.13952 1.86885C 5.30028 1.90079 5.44045 1.91761 5.5741 1.95627C 6.33945 2.17987 7.10459 2.40389 7.86468 2.64178C 8.0639 2.70356 8.25177 2.80905 8.43565 2.91055C 9.03624 3.24364 9.38361 3.7543 9.46977 4.43729C 9.52882 4.91054 9.55089 5.38127 9.39769 5.84549C 9.13921 6.62871 8.41631 6.84979 7.65769 6.48854C 7.59864 6.46017 7.55997 6.33051 7.55997 6.24793C 7.55346 5.44936 7.56249 4.65059 7.55094 3.85202C 7.5482 3.69378 7.50449 3.5202 7.42611 3.38508C 7.37841 3.30417 7.22038 3.23986 7.12392 3.25268C 7.04659 3.26172 6.9682 3.39411 6.92848 3.48931ZM 11.5082 7.45166C 11.9184 7.72317 11.9377 8.05352 11.5248 8.31978C 11.2688 8.4858 10.9795 8.60664 10.6916 8.71213C 9.59061 9.1173 8.48314 9.50943 7.37841 9.90556C 7.33071 9.92237 7.27943 9.93267 7.19327 9.95579C 7.19327 9.62901 7.18424 9.33585 7.20084 9.04395C 7.20483 8.98343 7.29876 8.90231 7.36811 8.87668C 8.16687 8.58457 8.96794 8.30192 9.76923 8.01612C 9.87598 7.97892 9.98526 7.94551 10.083 7.8915C 10.1422 7.85935 10.1809 7.78979 10.2297 7.7383C 10.1742 7.69585 10.1242 7.63007 10.0624 7.61473C 9.7087 7.52605 9.35882 7.56976 9.01943 7.68807C 8.501 7.86817 7.98404 8.05331 7.46562 8.23593C 7.38975 8.26304 7.31242 8.28595 7.19684 8.32209C 7.19684 7.97093 7.1918 7.65088 7.20336 7.3304C 7.20462 7.28795 7.283 7.22638 7.33722 7.20956C 8.69265 6.78254 10.034 6.79537 11.3522 7.36151C 11.4052 7.3863 11.458 7.41824 11.5082 7.45166Z"/>
<path id="path1_fill" d="M 169.012 39.3307C 168.277 33.845 165.949 23.7246 155.903 16.7752L 153.452 7.38666C 153.452 7.38666 153.207 5.07039 150.144 3.36248C 150.144 3.36248 150.328 1.77774 147.51 1.04621C 144.692 0.314378 138.137 -1.08665 130.481 1.47356C 130.481 1.47356 129.316 1.77804 129.379 3.48565C 129.379 3.48565 125.765 5.25349 125.029 8.54584C 124.294 11.8379 123.314 15.9828 123.314 15.9828L 112.197 15.9828L 63.6002 15.9828L 51.687 15.9828C 51.687 15.9828 50.7064 11.8379 49.971 8.54584C 49.2357 5.25379 45.6216 3.48565 45.6216 3.48565C 45.6825 1.77804 44.5194 1.47356 44.5194 1.47356C 36.8617 -1.08665 30.3082 0.314378 27.4901 1.04621C 24.6723 1.77774 24.8563 3.36248 24.8563 3.36248C 21.7934 5.07009 21.5482 7.38666 21.5482 7.38666L 19.0969 16.7752C 9.05077 23.7243 6.72293 33.845 5.98754 39.3307C 5.25245 44.818 0.475713 80.907 0.106813 85.1733C -0.25998 89.4412 -0.505111 105.412 14.1967 107.729C 28.8985 110.045 36.6168 96.7559 36.6168 96.7559L 46.5413 79.6256C 68.7163 96.7559 79.2527 73.4685 79.2527 73.4685L 95.7476 73.4685C 95.7476 73.4685 106.284 96.7559 128.459 79.6256L 138.383 96.7559C 138.383 96.7559 146.102 110.045 160.804 107.729C 175.505 105.412 175.26 89.4397 174.893 85.1733C 174.527 80.9052 169.748 44.8165 169.012 39.3307ZM 140.28 17.4336C 144.594 17.4336 148.105 20.9274 148.105 25.2209C 148.105 29.5142 144.594 33.0083 140.28 33.0083C 135.966 33.0083 132.455 29.5142 132.455 25.2209C 132.455 20.9277 135.966 17.4336 140.28 17.4336ZM 95.5596 24.2158C 96.6968 24.2158 97.8339 24.2158 98.9692 24.2158C 98.98 24.2545 98.984 24.8101 98.9728 24.8946C 98.9541 24.8964 98.9343 24.8985 98.9141 24.8985C 98.7978 24.8985 98.6801 24.8985 98.5639 24.8985C 98.5509 24.8985 98.538 24.8985 98.525 24.9003C 98.4792 24.9075 98.4533 24.9368 98.4624 24.9827C 98.4696 25.0175 98.4844 25.0561 98.5048 25.0855C 98.5398 25.1367 98.5804 25.1826 98.6229 25.2287C 98.9584 25.5938 99.292 25.957 99.6275 26.3202C 99.6365 26.3292 99.6459 26.3367 99.6588 26.3478C 99.6736 26.331 99.6886 26.3166 99.7031 26.3019C 100.083 25.8892 100.46 25.4766 100.84 25.0639C 100.849 25.0546 100.859 25.0438 100.864 25.0327C 100.89 24.9944 100.883 24.9575 100.847 24.9282C 100.818 24.9045 100.784 24.8988 100.746 24.8988C 100.628 24.9006 100.508 24.8988 100.39 24.8988C 100.373 24.8988 100.357 24.8949 100.337 24.8931C 100.337 24.6656 100.337 24.4418 100.337 24.2143C 101.258 24.2143 102.178 24.2143 103.101 24.2143C 103.101 24.44 103.101 24.6638 103.101 24.8949C 103.081 24.8949 103.061 24.8949 103.04 24.8949C 102.816 24.8949 102.591 24.8949 102.368 24.8949C 102.331 24.8949 102.305 24.906 102.279 24.9317C 101.553 25.7019 100.827 26.4724 100.101 27.2426C 100.077 27.2684 100.068 27.2921 100.068 27.3268C 100.07 27.6238 100.068 27.9193 100.068 28.2166C 100.068 28.2292 100.068 28.2421 100.07 28.255C 100.076 28.3137 100.105 28.3485 100.166 28.356C 100.191 28.3596 100.217 28.356 100.245 28.356C 100.498 28.356 100.75 28.356 101.003 28.356C 101.01 28.356 101.017 28.3578 101.028 28.3596C 101.028 28.5633 101.028 28.765 101.028 28.9685C 99.9115 28.9685 98.7985 28.9685 97.6815 28.9685C 97.6815 28.7647 97.6815 28.563 97.6815 28.3542C 97.7035 28.3542 97.724 28.3542 97.7441 28.3542C 97.9598 28.3542 98.1736 28.3542 98.3892 28.3542C 98.4115 28.3542 98.4353 28.3542 98.4576 28.3521C 98.5274 28.3449 98.5645 28.3044 98.5702 28.2331C 98.5702 28.222 98.5702 28.2112 98.5702 28.2001C 98.5702 27.8902 98.5702 27.5804 98.5702 27.2702C 98.5702 27.2336 98.5608 27.2079 98.5349 27.1803C 97.8477 26.4302 97.1584 25.6798 96.4727 24.9297C 96.4468 24.9003 96.4191 24.8892 96.3806 24.8892C 96.1297 24.8913 95.8792 24.8892 95.6286 24.8892C 95.6084 24.8892 95.588 24.8892 95.5639 24.8892C 95.5597 24.6671 95.5596 24.4436 95.5596 24.2158ZM 87.2993 24.214C 87.3231 24.2122 87.3472 24.2122 87.371 24.2122C 88.1268 24.2122 88.8842 24.2122 89.6401 24.2122C 89.6729 24.2122 89.7084 24.214 89.7413 24.2122C 89.7819 24.2083 89.8111 24.2212 89.8427 24.2488C 90.0508 24.4379 90.2592 24.6249 90.4673 24.8119C 91.3226 25.5788 92.176 26.3451 93.0313 27.112C 93.0478 27.1266 93.0644 27.1413 93.0921 27.1653C 93.0921 27.1323 93.0939 27.1102 93.0939 27.0901C 93.0939 26.4811 93.0939 25.874 93.0939 25.265C 93.0939 25.2173 93.0939 25.1715 93.0939 25.1238C 93.0957 25.0465 93.0608 24.9917 92.9963 24.9515C 92.9373 24.9147 92.8728 24.8982 92.8027 24.8982C 92.5907 24.8982 92.3805 24.8982 92.1688 24.8982C 92.1486 24.8982 92.1281 24.8982 92.104 24.8982C 92.104 24.6686 92.104 24.4469 92.104 24.2233C 92.104 24.2233 92.1061 24.2212 92.1079 24.2194C 92.1097 24.2176 92.1119 24.2155 92.1119 24.2155C 93.0571 24.2137 94.0006 24.2137 94.9462 24.2119C 94.9574 24.2119 94.9682 24.2137 94.983 24.2137C 94.983 24.4394 94.983 24.665 94.983 24.8958C 94.961 24.8958 94.9405 24.8958 94.9203 24.8958C 94.7158 24.8958 94.5129 24.8958 94.3087 24.894C 94.1374 24.894 94.0618 24.9656 94.0542 25.1379C 94.0521 25.1634 94.0521 25.191 94.0521 25.2167C 94.0521 26.4494 94.0521 27.6835 94.0521 28.9161C 94.0521 28.94 94.0521 28.9637 94.0521 28.9913C 94.0301 28.9934 94.0154 28.9952 93.9988 28.9952C 93.6781 28.9952 93.3574 28.9952 93.0367 28.9952C 93.0038 28.9952 92.9798 28.9862 92.9557 28.964C 91.73 27.8783 90.5044 26.7946 89.2787 25.7088C 89.2639 25.6959 89.2474 25.6831 89.2233 25.663C 89.2233 25.6923 89.2233 25.7106 89.2233 25.7292C 89.2233 26.5453 89.2233 27.3613 89.2233 28.1776C 89.2233 28.2088 89.2272 28.2418 89.2305 28.2729C 89.2362 28.3077 89.2582 28.3296 89.2953 28.3353C 89.3359 28.341 89.3781 28.3425 89.4187 28.3425C 89.6491 28.3425 89.8792 28.3425 90.1099 28.3425C 90.13 28.3425 90.1505 28.3425 90.1743 28.3425C 90.1743 28.5609 90.1743 28.7734 90.1743 28.9898C 89.2197 28.9898 88.2687 28.9898 87.3122 28.9898C 87.3122 28.7752 87.3122 28.5624 87.3122 28.3425C 87.3342 28.3425 87.3547 28.3425 87.3749 28.3425C 87.5848 28.3425 87.7932 28.3425 88.0034 28.3425C 88.0272 28.3425 88.053 28.3425 88.0768 28.3386C 88.1506 28.3278 88.1931 28.2801 88.1967 28.2049C 88.1967 28.1902 88.1967 28.1755 88.1967 28.1591C 88.1967 27.1192 88.1967 26.0795 88.1967 25.0393C 88.1967 25.0247 88.1967 25.01 88.1967 24.9938C 88.1946 24.9057 88.1618 24.8652 88.0768 24.8505C 88.0362 24.8433 87.994 24.8394 87.9534 24.8394C 87.7582 24.8376 87.561 24.8394 87.3652 24.8394C 87.3451 24.8394 87.3246 24.8394 87.2969 24.8394C 87.2993 24.6324 87.2993 24.4268 87.2993 24.214ZM 79.5238 25.3954C 79.7228 25.0726 79.9824 24.8065 80.2887 24.5829C 80.7051 24.2784 81.1695 24.0731 81.6691 23.9407C 82.1648 23.8088 82.6698 23.7609 83.1821 23.7849C 83.8123 23.8142 84.417 23.95 84.9883 24.2212C 85.3864 24.4103 85.7457 24.656 86.0462 24.9806C 86.3136 25.2686 86.5127 25.5932 86.6121 25.9744C 86.7485 26.4862 86.6877 26.9795 86.4483 27.4491C 86.2492 27.8381 85.958 28.1498 85.6078 28.4084C 85.1819 28.7219 84.7064 28.9311 84.1978 29.0632C 83.903 29.1402 83.6043 29.1879 83.3004 29.208C 83.1824 29.2152 83.0625 29.2098 82.9448 29.2098C 82.9448 29.2116 82.9448 29.2137 82.9448 29.2155C 82.7918 29.2098 82.6388 29.2137 82.4876 29.199C 81.6914 29.1273 80.9524 28.8927 80.2998 28.4231C 79.9571 28.1773 79.6731 27.8783 79.4687 27.5057C 79.2865 27.174 79.194 26.8198 79.2052 26.4419C 79.2139 26.0667 79.3265 25.7181 79.5238 25.3954ZM 72.277 24.6324C 72.4448 24.4639 72.6402 24.3354 72.8519 24.2269C 73.1654 24.0675 73.4952 23.9629 73.8379 23.8894C 74.1917 23.8142 74.5474 23.772 74.9105 23.7756C 75.1927 23.7795 75.471 23.8124 75.7474 23.8655C 76.1455 23.9428 76.5343 24.0564 76.9104 24.2104C 76.9857 24.2416 77.0577 24.2835 77.1354 24.3165C 77.161 24.3276 77.1923 24.3351 77.2221 24.3333C 77.279 24.3294 77.2959 24.3093 77.2959 24.2509C 77.2959 24.1939 77.2959 24.1352 77.2959 24.0782C 77.342 24.0657 77.9428 24.0636 78.0093 24.0746C 78.0093 24.6249 78.0093 25.1751 78.0093 25.7292C 77.7789 25.7292 77.5522 25.7292 77.32 25.7292C 77.3164 25.7034 77.3146 25.6816 77.3107 25.6576C 77.283 25.4577 77.189 25.2926 77.0453 25.1532C 76.9071 25.0214 76.7448 24.9275 76.5698 24.8541C 76.3319 24.7513 76.0814 24.6872 75.8272 24.6435C 75.4659 24.579 75.1009 24.5535 74.7344 24.5643C 74.4636 24.5736 74.1926 24.5955 73.927 24.6614C 73.8183 24.689 73.7135 24.7238 73.6138 24.7753C 73.5418 24.8119 73.4738 24.8577 73.4202 24.9186C 73.3575 24.9881 73.3223 25.069 73.3169 25.1622C 73.3133 25.2413 73.341 25.3091 73.4015 25.3549C 73.4515 25.3936 73.5084 25.4265 73.5656 25.4502C 73.7002 25.5089 73.8457 25.5365 73.9915 25.562C 74.2772 25.6117 74.5666 25.6372 74.856 25.6648C 75.3168 25.7106 75.7793 25.7529 76.2362 25.8335C 76.59 25.8958 76.9366 25.9768 77.2703 26.1158C 77.4805 26.2021 77.6778 26.31 77.8509 26.4604C 78.1201 26.6933 78.2713 26.9849 78.3005 27.3391C 78.3412 27.7955 78.1825 28.1698 77.8344 28.4671C 77.6205 28.6487 77.3754 28.7734 77.1137 28.8726C 76.8078 28.9883 76.4909 29.0617 76.1684 29.1112C 75.8956 29.1516 75.6227 29.1792 75.3466 29.1792C 75.1771 29.1792 75.0075 29.1591 74.8398 29.1315C 74.2923 29.0416 73.7542 28.9131 73.2235 28.7515C 73.1534 28.7297 73.0853 28.706 73.0209 28.6691C 72.9582 28.6326 72.8845 28.6344 72.8071 28.6365C 72.8071 28.7372 72.8071 28.8364 72.8071 28.937C 72.5324 28.937 72.2635 28.937 71.9943 28.937C 71.9813 28.8987 71.9756 27.1674 71.9885 27.0607C 72.0292 27.0499 72.7038 27.0481 72.7607 27.0589C 72.7679 27.1105 72.7718 27.1617 72.7827 27.2133C 72.8251 27.4296 72.9375 27.6058 73.0977 27.7524C 73.2765 27.9175 73.4867 28.0293 73.7096 28.1192C 73.9659 28.222 74.233 28.2879 74.5058 28.332C 74.8672 28.3907 75.2319 28.4144 75.5987 28.4C 75.8751 28.3892 76.1458 28.3488 76.4057 28.2442C 76.5497 28.1872 76.6804 28.112 76.7927 28.0056C 76.8517 27.9505 76.9035 27.8881 76.9421 27.8165C 76.9604 27.7839 76.964 27.7506 76.9568 27.7137C 76.9384 27.6187 76.8869 27.5453 76.8129 27.4845C 76.7412 27.426 76.6581 27.3856 76.5714 27.3508C 76.3982 27.281 76.2157 27.2408 76.0314 27.2076C 75.7236 27.1509 75.4122 27.1156 75.1027 27.0808C 74.6585 27.0295 74.2143 26.9837 73.7758 26.9028C 73.422 26.8369 73.0718 26.7562 72.7402 26.6094C 72.5393 26.5213 72.3511 26.4095 72.1963 26.2498C 72.0012 26.0463 71.9051 25.8044 71.9015 25.5236C 71.8955 25.1718 72.0319 24.8799 72.277 24.6324ZM 28.2809 27.011C 28.4929 24.0327 32.5806 24.0309 34.3239 24.0288C 36.0841 24.0309 40.1682 24.0327 40.3838 27.0092C 40.498 28.6047 39.958 33.3697 39.3259 34.6242C 38.7914 35.6881 36.3735 37.511 34.9359 38.5309C 34.8952 38.5674 34.8512 38.5986 34.8012 38.6259C 34.6558 38.7104 34.4935 38.7526 34.3333 38.7526C 34.2724 38.7526 34.2116 38.7455 34.1526 38.7341C 34.0809 38.7194 34.0107 38.6975 33.9445 38.6681C 33.8653 38.6295 33.7933 38.5857 33.7289 38.5306C 32.7631 37.8482 29.9155 35.7702 29.3406 34.6239C 28.7067 33.3697 28.1646 28.605 28.2809 27.011ZM 21.167 46.1351C 18.1742 45.9241 18.1721 41.8562 18.1721 40.1195C 18.1721 38.3696 18.1739 34.3017 21.1688 34.0907C 21.3182 34.08 21.4949 34.0743 21.6958 34.0743C 23.3988 34.0743 27.5768 34.5256 28.8208 35.1435C 29.9727 35.7156 32.0608 38.5531 32.7465 39.5141C 32.8074 39.5855 32.8592 39.6664 32.8959 39.7563C 32.9459 39.8753 32.9697 40.002 32.9679 40.1267C 32.9661 40.2622 32.9348 40.3997 32.8721 40.5265C 32.8372 40.5945 32.7947 40.6583 32.7468 40.7153C 32.2033 41.4822 30.0212 44.488 28.8211 45.0841C 27.5789 45.7021 23.3991 46.1534 21.6961 46.1534C 21.4949 46.1516 21.3163 46.1462 21.167 46.1351ZM 40.3838 53.211C 40.17 56.191 36.0841 56.1931 34.3408 56.1949L 34.3336 56.1949C 32.5809 56.1931 28.495 56.191 28.283 53.211C 28.1689 51.619 28.7088 46.854 29.3409 45.5978C 29.9158 44.4533 32.767 42.3734 33.731 41.6911C 33.7716 41.6563 33.8159 41.6251 33.8638 41.5976C 33.9337 41.5571 34.0074 41.5259 34.083 41.5041C 34.3224 41.4399 34.5826 41.4657 34.8037 41.5922C 34.8627 41.6269 34.9178 41.6674 34.966 41.7111C 36.4109 42.7385 38.7974 44.5411 39.3265 45.596C 39.9562 46.8558 40.498 51.619 40.3838 53.211ZM 46.9689 46.1516C 45.2678 46.1516 41.0879 45.7006 39.8457 45.0826C 38.6441 44.4865 36.4602 41.4732 35.92 40.712C 35.8814 40.6679 35.8462 40.6167 35.8167 40.5633C 35.7285 40.4039 35.6896 40.2241 35.7008 40.0479C 35.708 39.9361 35.7357 39.8261 35.7854 39.7194C 35.8224 39.6424 35.8682 39.5711 35.9236 39.5067C 36.6147 38.542 38.6974 35.7159 39.8454 35.1435C 41.0894 34.5256 45.2675 34.0743 46.9705 34.0743C 47.1695 34.0743 47.3481 34.08 47.4993 34.0907C 50.4722 34.3017 50.4941 38.3166 50.4941 40.0719C 50.4941 40.0865 50.4941 40.0994 50.4941 40.1123C 50.4923 41.8562 50.4905 45.9244 47.4956 46.1354C 47.3469 46.1462 47.168 46.1516 46.9689 46.1516ZM 60.2623 76.2763C 53.539 76.2763 48.069 70.8328 48.069 64.1438C 48.069 57.4533 53.539 52.0098 60.2623 52.0098C 66.9856 52.0098 72.4556 57.4533 72.4556 64.1438C 72.4574 70.8328 66.9856 76.2763 60.2623 76.2763ZM 76.1934 41.1591C 76.1934 41.9659 75.5336 42.6246 74.7208 42.6246L 68.289 42.6246C 67.4762 42.6246 66.8164 41.9683 66.8164 41.1591L 66.8164 38.1107C 66.8164 37.304 67.4762 36.6453 68.289 36.6453L 74.7208 36.6453C 75.5336 36.6453 76.1934 37.3019 76.1934 38.1107L 76.1934 41.1591ZM 87.5001 65.7465C 81.8567 65.7465 77.264 61.1781 77.264 55.5602C 77.264 49.9426 81.8549 45.3739 87.5001 45.3739C 93.1454 45.3739 97.7363 49.9426 97.7363 55.5602C 97.7363 61.1781 93.1454 65.7465 87.5001 65.7465ZM 100.193 42.7678C 100.108 42.7954 100.018 42.8065 99.9274 42.8065C 99.1168 42.8065 98.4548 42.1499 98.4548 41.3407L 98.4548 37.5608C 98.4548 36.6695 99.3155 35.8918 100.169 36.1268L 108.072 38.2615C 108.473 38.3696 108.752 38.7329 108.752 39.1455C 108.752 39.8974 108.178 40.5193 107.445 40.6017L 100.193 42.7678ZM 114.845 76.2763C 108.122 76.2763 102.652 70.8328 102.652 64.1438C 102.652 57.4533 108.122 52.0098 114.845 52.0098C 121.568 52.0098 127.038 57.4533 127.038 64.1438C 127.038 70.8328 121.568 76.2763 114.845 76.2763ZM 126.24 46.9805C 121.926 46.9805 118.415 43.4868 118.415 39.1932C 118.415 34.8996 121.926 31.4059 126.24 31.4059C 130.554 31.4059 134.065 34.8996 134.065 39.1932C 134.064 43.4868 130.554 46.9805 126.24 46.9805ZM 140.28 60.9525C 135.966 60.9525 132.455 57.4587 132.455 53.1651C 132.455 48.8715 135.966 45.3778 140.28 45.3778C 144.594 45.3778 148.105 48.8715 148.105 53.1651C 148.104 57.4587 144.594 60.9525 140.28 60.9525ZM 154.32 46.9805C 150.005 46.9805 146.495 43.4868 146.495 39.1932C 146.495 34.8996 150.005 31.4059 154.32 31.4059C 158.634 31.4059 162.145 34.8996 162.145 39.1932C 162.144 43.4868 158.634 46.9805 154.32 46.9805Z"/>
<path id="path2_fill" d="M 0.80262 3.33083C 1.22633 3.62961 1.70394 3.76357 2.17011 3.76896C 2.52576 3.76896 2.82268 3.71772 3.10455 3.61313C 3.12473 3.60594 3.13949 3.59095 3.15997 3.58346C 3.16359 3.58166 3.16931 3.58346 3.17292 3.58166C 3.57465 3.43122 3.91554 3.19836 4.16428 2.84623C 4.49976 2.37303 4.57895 1.85967 4.37628 1.31304C 4.23414 0.929744 3.97456 0.634252 3.63156 0.418178C 3.46201 0.31179 3.28885 0.22908 3.11359 0.166745C 2.56972 -0.0439336 1.99846 -0.0550222 1.40701 0.13378C 0.986615 0.267739 0.630968 0.504187 0.363854 0.856617C 0.00458956 1.33162 -0.0968959 1.85787 0.0964382 2.42458C 0.227436 2.80458 0.47618 3.09977 0.80262 3.33083Z"/>
</defs>
</svg>
