<svg width="256" height="256" viewBox="0 0 256 256" version="1.1" xmlns="http://www.w3.org/2000/svg" xmlns:xlink="http://www.w3.org/1999/xlink">
<title>i-sketch</title>
<desc>Created using Figma</desc>
<g id="Canvas" transform="translate(-174 308)">
<clipPath id="clip-0" clip-rule="evenodd">
<path d="M 174 -308L 430 -308L 430 -52L 174 -52L 174 -308Z" fill="#FFFFFF"/>
</clipPath>
<g id="i-sketch" clip-path="url(#clip-0)">
<g id="icon" opacity="0.9">
<g id="Subtract">
<use xlink:href="#path0_fill" transform="translate(221 -195.098)" fill="#FFFFFF" fill-opacity="0.4"/>
</g>
<g id="Polygon">
<use xlink:href="#path1_fill" transform="matrix(-1 -1.21139e-16 1.23805e-16 -1 350.206 -195.098)" fill="#FFFFFF" fill-opacity="0.5"/>
</g>
<g id="Group 2">
<g id="Polygon">
<use xlink:href="#path2_fill" transform="matrix(-1 -1.21139e-16 1.23805e-16 -1 302 -195.098)" fill="#FFFFFF" fill-opacity="0.7"/>
</g>
<g id="Polygon">
<use xlink:href="#path3_fill" transform="matrix(1 -1.21139e-16 -1.23805e-16 -1 302 -195.098)" fill="#FFFFFF" fill-opacity="0.7"/>
</g>
</g>
<g id="Group">
<g id="Polygon">
<use xlink:href="#path4_fill" transform="matrix(-1 -1.21139e-16 1.23805e-16 -1 256.089 -195.098)" fill="#FFFFFF" fill-opacity="0.8"/>
</g>
<g id="Polygon">
<use xlink:href="#path4_fill" transform="matrix(1 -1.21139e-16 -1.23805e-16 -1 347.911 -195.098)" fill="#FFFFFF" fill-opacity="0.8"/>
</g>
<g id="Polygon">
<use xlink:href="#path5_fill" transform="matrix(-1 -1.21139e-16 1.23805e-16 -1 350.206 -102)" fill="#FFFFFF" fill-opacity="0.7"/>
</g>
</g>
</g>
</g>
</g>
<defs>
<path id="path0_fill" fill-rule="evenodd" d="M 0 0L 81 93.0984L 162 0L 129.206 0L 81 93.0984L 32.7935 0L 0 0Z"/>
<path id="path1_fill" fill-rule="evenodd" d="M 48.2065 51.9016L 96.4129 8.97468e-13L -1.28524e-23 1.27133e-23L 48.2065 51.9016Z"/>
<path id="path2_fill" fill-rule="evenodd" d="M 45.9109 47.0358L 48.2065 2.47187e-22L 1.45351e-22 51.9016L 45.9109 47.0358Z"/>
<path id="path3_fill" fill-rule="evenodd" d="M 45.9109 47.0358L 48.2065 0L -4.98527e-24 51.9016L 45.9109 47.0358Z"/>
<path id="path4_fill" fill-rule="evenodd" d="M -1.45351e-22 47.0358L 18.0364 23.3557L 35.0891 8.6664e-13L 1.96761 -1.27133e-23L -1.45351e-22 47.0358Z"/>
<path id="path5_fill" fill-rule="evenodd" d="M 48.2065 0L 96.4129 93.0984L 9.97054e-23 93.0984L 48.2065 0Z"/>
</defs>
</svg>
