<svg width="256" height="256" viewBox="0 0 256 256" version="1.1" xmlns="http://www.w3.org/2000/svg" xmlns:xlink="http://www.w3.org/1999/xlink">
<title>i-macbook</title>
<desc>Created using Figma</desc>
<g id="Canvas" transform="translate(-1358 308)">
<clipPath id="clip-0" clip-rule="evenodd">
<path d="M 1358 -308L 1614 -308L 1614 -52L 1358 -52L 1358 -308Z" fill="#FFFFFF"/>
</clipPath>
<g id="i-macbook" clip-path="url(#clip-0)">
<g id="icon" opacity="0.9">
<g id="Subtract">
<use xlink:href="#path0_fill" transform="translate(1407.61 -235)" fill="#FFFFFF"/>
</g>
<g id="Rectangle 2">
<use xlink:href="#path1_fill" transform="translate(1390 -132.237)" fill="#FFFFFF" fill-opacity="0.6"/>
</g>
<g id="Rectangle">
<use xlink:href="#path2_fill" transform="translate(1414 -225)" fill="#FFFFFF" fill-opacity="0.2"/>
</g>
<g id="Apple_logo_black">
<g id="Vector">
<use xlink:href="#path3_fill" transform="translate(1472 -198)" fill="#FFFFFF"/>
</g>
</g>
</g>
</g>
</g>
<defs>
<path id="path0_fill" fill-rule="evenodd" d="M 4 0C 1.79089 0 0 1.79086 0 4L 0 102.763L 156.166 102.763L 156.166 4C 156.166 1.79086 154.375 0 152.166 0L 4 0ZM 149.387 10L 6.38733 10L 6.38733 97L 149.387 97L 149.387 10Z"/>
<path id="path1_fill" d="M 0 0L 191 0L 191 5.29505L 191 5.29505C 191 6.91971 189.686 8.23675 188.065 8.23675L 2.93545 8.23675C 1.31425 8.23675 0 6.91971 0 5.29505L 0 5.29505L 0 0Z"/>
<path id="path2_fill" d="M 0 0L 143 0L 143 87L 0 87L 0 0Z"/>
<path id="path3_fill" d="M 27.4132 24.9377C 26.9104 26.0557 26.3154 27.0848 25.626 28.031C 24.6862 29.3208 23.9168 30.2136 23.3238 30.7094C 22.4045 31.5232 21.4196 31.94 20.3649 31.9637C 19.6078 31.9637 18.6947 31.7563 17.6318 31.3355C 16.5655 30.9168 15.5855 30.7094 14.6894 30.7094C 13.7497 30.7094 12.7418 30.9168 11.6637 31.3355C 10.584 31.7563 9.71423 31.9755 9.04922 31.9973C 8.03784 32.0387 7.02975 31.6101 6.02351 30.7094C 5.38127 30.1702 4.57796 29.2457 3.61562 27.9361C 2.58312 26.5377 1.73425 24.916 1.06924 23.0672C 0.357028 21.0702 9.39278e-08 19.1364 9.39278e-08 17.2643C 9.39278e-08 15.1197 0.481372 13.2701 1.44555 11.7201C 2.20331 10.4751 3.2114 9.49305 4.47311 8.77208C 5.73481 8.05111 7.09808 7.68372 8.5662 7.66021C 9.36951 7.66021 10.423 7.89942 11.7321 8.36952C 13.0375 8.84121 13.8757 9.08042 14.2431 9.08042C 14.5179 9.08042 15.449 8.80072 17.0276 8.24311C 18.5203 7.72599 19.7802 7.51187 20.8123 7.59621C 23.609 7.81349 25.7101 8.87479 27.1074 10.7868C 24.6062 12.2458 23.3689 14.2891 23.3935 16.9105C 23.4161 18.9523 24.1855 20.6514 25.6978 22.0005C 26.3831 22.6267 27.1485 23.1106 28 23.4543C 27.8153 23.9698 27.6204 24.4637 27.4132 24.9377L 27.4132 24.9377ZM 20.999 0.640178C 20.999 2.24054 20.3916 3.7348 19.181 5.11787C 17.7201 6.76207 15.953 7.71216 14.0367 7.56224C 14.0123 7.37025 13.9982 7.16818 13.9982 6.95584C 13.9982 5.41949 14.6929 3.77529 15.9267 2.43094C 16.5427 1.75027 17.3261 1.1843 18.2761 0.732817C 19.2241 0.28807 20.1208 0.0421123 20.9641 1.43165e-08C 20.9887 0.213939 20.999 0.427898 20.999 0.640158L 20.999 0.640178Z"/>
</defs>
</svg>
