<svg fill="none" height="150" viewBox="0 0 797 150" width="797" xmlns="http://www.w3.org/2000/svg" xmlns:xlink="http://www.w3.org/1999/xlink"><clipPath id="a"><path d="m0 0h797v150h-797z"/></clipPath><g clip-path="url(#a)"><path d="m794 150.007h-679c47-28 72-98.0002 110-98.0002s75 78.0002 117 88.0002 68-99.0002 171-98.0002c103 1.0001 120 108.0002 281 108.0002z" fill="#f06067"/><path d="m797 150.399h-797s77-101.0004 115-100.0004 58.288 50.2784 103 50.0004c62.27-.388 71.5-98.899 127.5-98.399 56 .49999 102.727 114.179 192.5 123.399 55.248 5.674 84.894-31.9155 140-25 50.016 6.276 119 50 119 50z" fill="#009de4"/><path d="m797 150.399h-797s77-101.0004 115-100.0004 58.288 50.2784 103 50.0004c62.27-.388 71.5-98.899 127.5-98.399 56 .49999 102.727 114.179 192.5 123.399 55.248 5.674 84.894-31.9155 140-25 50.016 6.276 119 50 119 50z" stroke="#009de4"/></g></svg>