<svg width="256" height="256" viewBox="0 0 256 256" version="1.1" xmlns="http://www.w3.org/2000/svg" xmlns:xlink="http://www.w3.org/1999/xlink">
<title>i-adobe</title>
<desc>Created using Figma</desc>
<g id="Canvas" transform="translate(-766 308)">
<clipPath id="clip-0" clip-rule="evenodd">
<path d="M 766 -308L 1022 -308L 1022 -52L 766 -52L 766 -308Z" fill="#FFFFFF"/>
</clipPath>
<g id="i-adobe" clip-path="url(#clip-0)">
<g id="icon">
<g id="Vector">
<use xlink:href="#path0_fill" transform="translate(808 -243)" fill="#FFFFFF" fill-opacity="0.85"/>
</g>
</g>
</g>
</g>
<defs>
<path id="path0_fill" d="M 171 60.1907L 171 65.8149C 170.947 66.12 170.879 66.4195 170.844 66.7232C 170.552 69.1698 170.364 71.6318 169.961 74.0601C 168.647 81.9523 165.805 89.2877 161.583 96.0706C 155.171 106.369 146.503 114.221 135.609 119.584C 129.322 122.694 122.543 124.692 115.573 125.491C 114.025 125.67 112.479 125.83 110.93 126L 50.8567 126C 50.5541 125.944 50.2529 125.854 49.9475 125.835C 43.89 125.454 38.0619 124.075 32.5069 121.647C 20.413 116.36 11.3958 107.792 5.49311 95.9975C 2.88482 90.7953 1.19686 85.1815 0.503852 79.4045C 0.333556 77.9999 0.167481 76.5966 0 75.1934L 0 69.7364C 0.0577037 69.4341 0.14637 69.1318 0.164667 68.8281C 0.478519 63.5849 1.55519 58.4936 3.45096 53.6005C 8.55281 40.4341 17.4462 30.669 30.0847 24.3488C 36.6419 21.0684 43.631 19.3446 50.9411 18.9621C 54.5201 18.7765 58.0964 18.9762 61.6543 19.4529C 61.9766 19.4965 62.441 19.353 62.6648 19.1238C 67.7807 13.9031 73.606 9.66246 80.1744 6.4482C 86.5457 3.33096 93.2506 1.3217 100.309 0.517431C 101.969 0.327612 103.634 0.17154 105.298 -7.71032e-09L 110.42 -7.71032e-09C 110.755 0.0520243 111.091 0.111079 111.426 0.150449C 113.963 0.445722 116.515 0.631322 119.029 1.05173C 126.871 2.3664 134.171 5.17853 140.927 9.35593C 151.285 15.762 159.179 24.4331 164.572 35.3498C 167.691 41.6339 169.694 48.4116 170.491 55.3805C 170.673 56.9849 170.83 58.5892 171 60.1907ZM 75.3878 23.7976C 75.4905 23.9326 75.5159 23.9959 75.5595 24.0169C 79.0766 25.7489 82.4381 27.7797 85.607 30.0869C 85.8068 30.2317 86.3022 30.1713 86.5443 30.0194C 95.2533 24.5062 104.694 22.6038 114.836 24.4008C 124.774 26.1612 132.861 31.1218 139.039 39.0449C 146.035 48.0114 148.702 58.1505 146.771 69.4313C 145.477 76.9917 142.445 83.7746 137.293 89.4565C 127.891 99.8149 116.118 104.099 102.259 102.285C 93.7277 101.169 86.3627 97.4921 80.2673 91.3378C 72.4435 83.4427 64.569 75.5997 56.7227 67.7258C 55.677 66.6769 54.5131 65.8332 53.0072 65.649C 50.3767 65.327 47.9898 66.6389 46.854 68.9997C 45.8407 71.1073 45.9716 73.4836 48.1699 75.6433C 56.917 84.2217 65.5866 92.8788 74.3238 101.466C 75.8192 102.943 77.4229 104.306 79.1216 105.545C 85.5042 110.175 92.7003 112.735 100.493 113.766C 106.61 114.573 112.678 114.4 118.701 113.047C 130.188 110.47 139.703 104.612 147.198 95.5742C 153.386 88.1052 157.129 79.5226 158.433 69.8869C 159.189 64.3922 159.031 58.8104 157.966 53.3671C 156.228 44.4667 152.459 36.5028 146.42 29.7241C 134.897 16.7982 120.401 11.0277 103.15 12.3157C 96.5144 12.8106 90.2373 14.758 84.3304 17.8471C 81.1429 19.5017 78.1445 21.4968 75.3878 23.7976L 75.3878 23.7976ZM 71.167 114.033C 70.9296 113.813 70.6931 113.593 70.4576 113.371C 66.8814 109.998 63.2855 106.646 59.7515 103.229C 59.0675 102.568 58.4384 102.246 57.4701 102.268C 53.891 102.356 50.3092 102.371 46.7822 101.575C 29.2459 97.613 19.0633 78.5651 25.5261 61.8048C 30.6238 48.5893 44.7359 40.541 58.6523 43.0227C 64.8899 44.1349 70.3647 46.7726 74.8586 51.4028C 80.339 57.0552 85.9827 62.5458 91.5223 68.1406C 92.7833 69.4145 94.2316 69.9952 95.9781 69.7463C 98.2356 69.4243 100.033 68.3501 100.849 66.1383C 101.649 63.9617 101.262 61.9005 99.6121 60.2315C 93.7981 54.3471 88.122 48.3151 82.073 42.681C 70.3408 31.7489 56.506 28.4981 41.2047 33.1465C 20.6241 39.3936 8.57956 60.6252 13.2817 81.5755C 17.5673 100.664 34.2774 114.061 53.8305 114.078C 59.2899 114.084 64.7506 114.081 70.2099 114.078C 70.4802 114.078 70.7504 114.054 71.167 114.033Z"/>
</defs>
</svg>
