<svg width="256" height="256" viewBox="0 0 256 256" version="1.1" xmlns="http://www.w3.org/2000/svg" xmlns:xlink="http://www.w3.org/1999/xlink">
<title>i-pebble</title>
<desc>Created using Figma</desc>
<g id="Canvas" transform="translate(-2246 308)">
<clipPath id="clip-0" clip-rule="evenodd">
<path d="M 2246 -308L 2502 -308L 2502 -52L 2246 -52L 2246 -308Z" fill="#FFFFFF"/>
</clipPath>
<g id="i-pebble" clip-path="url(#clip-0)">
<g id="icon" opacity="0.9">
<g id="Subtract">
<use xlink:href="#path0_fill" transform="translate(2329.86 -282)" fill="#FFFFFF" fill-opacity="0.6"/>
</g>
<g id="Subtract">
<use xlink:href="#path1_fill" transform="translate(2334.73 -223.399)" fill="#FFFFFF"/>
</g>
<g id="buttons">
<g id="Rectangle 2">
<use xlink:href="#path2_fill" transform="translate(2325 -208.748)" fill="#FFFFFF"/>
</g>
<g id="Rectangle 2.1">
<use xlink:href="#path2_fill" transform="translate(2408.92 -208.748)" fill="#FFFFFF"/>
</g>
<g id="Rectangle 2.2">
<use xlink:href="#path2_fill" transform="translate(2408.92 -187.994)" fill="#FFFFFF"/>
</g>
<g id="Rectangle 2.3">
<use xlink:href="#path2_fill" transform="translate(2408.92 -167.239)" fill="#FFFFFF"/>
</g>
</g>
<g id="Group">
<g id="Ellipse">
<use xlink:href="#path3_fill" transform="translate(2356.62 -195.319)" fill="#FFFFFF"/>
</g>
<g id="Ellipse">
<use xlink:href="#path3_fill" transform="translate(2380.95 -195.319)" fill="#FFFFFF"/>
</g>
<g id="Ellipse 2 (Stroke)">
<use xlink:href="#path4_fill" transform="translate(2356.62 -183.11)" fill="#FFFFFF"/>
</g>
</g>
</g>
</g>
</g>
<defs>
<path id="path0_fill" fill-rule="evenodd" d="M 65.7839 17L 44.1353 17L 44.1353 0L 55.946 0L 56.0542 0C 61.4277 0 65.7839 4.37277 65.7839 9.76688L 65.7839 17ZM 65.7839 22L 17.0271 22L 17.0271 53.7178L 8 53.7178C 3.58179 53.7178 0 57.2995 0 61.7178L 0 137.282C 0 141.7 3.58179 145.282 8 145.282L 17.0271 145.282L 17.0271 189.233C 17.0271 194.627 21.3833 199 26.7568 199L 55.946 199C 61.3196 199 65.6758 194.627 65.6758 189.233L 65.6758 145.282L 73.4866 145.282C 77.9048 145.282 81.4866 141.7 81.4866 137.282L 81.4866 61.7178C 81.4866 57.2995 77.9048 53.7178 73.4866 53.7178L 65.7839 53.7178L 65.7839 22ZM 17.0271 17L 39.1353 17L 39.1353 0L 26.865 0L 26.7568 0C 21.3833 0 17.0271 4.37277 17.0271 9.76688L 17.0271 17ZM 15.811 70.8098L 65.6758 70.8098L 65.6758 128.19L 15.811 128.19L 15.811 70.8098ZM 4.86499 63.6012C 4.86499 60.8398 7.10352 58.6012 9.86499 58.6012L 71.6218 58.6012C 74.3831 58.6012 76.6218 60.8398 76.6218 63.6012L 76.6218 135.399C 76.6218 138.16 74.3831 140.399 71.6218 140.399L 9.86499 140.399C 7.10352 140.399 4.86499 138.16 4.86499 135.399L 4.86499 63.6012ZM 10.946 69.9264C 10.946 67.7172 12.7368 65.9264 14.946 65.9264L 66.5405 65.9264C 68.7498 65.9264 70.5405 67.7172 70.5405 69.9264L 70.5405 129.074C 70.5405 131.283 68.7498 133.074 66.5405 133.074L 14.946 133.074C 12.7368 133.074 10.946 131.283 10.946 129.074L 10.946 69.9264Z"/>
<path id="path1_fill" fill-rule="evenodd" d="M 5 0C 2.23853 0 0 2.23857 0 5L 0 76.7975C 0 79.559 2.23853 81.7975 5 81.7975L 66.7568 81.7975C 69.5181 81.7975 71.7568 79.559 71.7568 76.7975L 71.7568 5C 71.7568 2.23857 69.5181 0 66.7568 0L 5 0ZM 10.0811 7.32515C 7.87183 7.32515 6.08105 9.11601 6.08105 11.3251L 6.08105 70.4724C 6.08105 72.6815 7.87183 74.4724 10.0811 74.4724L 61.6755 74.4724C 63.8848 74.4724 65.6755 72.6815 65.6755 70.4724L 65.6755 11.3251C 65.6755 9.11601 63.8848 7.32515 61.6755 7.32515L 10.0811 7.32515Z"/>
<path id="path2_fill" d="M 0 0L 6.08108 0L 6.08108 9.76687L 0 9.76687L 0 0Z"/>
<path id="path3_fill" d="M 4.86486 2.44172C 4.86486 3.79024 3.77583 4.88344 2.43243 4.88344C 1.08904 4.88344 0 3.79024 0 2.44172C 0 1.09319 1.08904 0 2.43243 0C 3.77583 0 4.86486 1.09319 4.86486 2.44172Z"/>
<path id="path4_fill" d="M 14.5946 11.9034C 20.6835 11.9034 25.7005 7.2967 26.3755 1.36599C 26.4609 0.615173 27.0653 0 27.8209 0C 28.5766 0 29.1959 0.614542 29.1265 1.36701C 28.4397 8.8172 22.1958 14.6503 14.5946 14.6503C 6.99342 14.6503 0.749462 8.8172 0.062696 1.36701C -0.00666741 0.614541 0.612583 0 1.36824 0C 2.1239 0 2.72826 0.615173 2.81372 1.36599C 3.48872 7.2967 8.50573 11.9034 14.5946 11.9034Z"/>
</defs>
</svg>
