<svg xmlns="http://www.w3.org/2000/svg" width="797" height="150" fill="none" viewBox="0 0 797 150"><g clip-path="url(#clip0)"><path fill="#F06067" d="M794 150.007H115C162 122.007 187 52.0068 225 52.0068C263 52.0068 300 130.007 342 140.007C384 150.007 410 41.0068 513 42.0068C616 43.0069 633 150.007 794 150.007Z"/><g style="mix-blend-mode:multiply"><path fill="#009DE4" d="M797 150.399H0C0 150.399 77 49.3986 115 50.3986C153 51.3986 173.288 100.677 218 100.399C280.27 100.011 289.5 1.5 345.5 2C401.5 2.49999 448.227 116.179 538 125.399C593.248 131.073 622.894 93.4835 678 100.399C728.016 106.675 797 150.399 797 150.399Z"/><path stroke="#009DE4" d="M797 150.399H0C0 150.399 77 49.3986 115 50.3986C153 51.3986 173.288 100.677 218 100.399C280.27 100.011 289.5 1.5 345.5 2C401.5 2.49999 448.227 116.179 538 125.399C593.248 131.073 622.894 93.4835 678 100.399C728.016 106.675 797 150.399 797 150.399Z"/></g></g><defs><clipPath id="clip0"><rect width="797" height="150" fill="#fff"/></clipPath></defs></svg>