<?xml version="1.0" encoding="UTF-8"?>
<svg width="256px" height="256px" viewBox="0 0 256 256" version="1.1" xmlns="http://www.w3.org/2000/svg" xmlns:xlink="http://www.w3.org/1999/xlink">
    <!-- Generator: Sketch 49.3 (51167) - http://www.bohemiancoding.com/sketch -->
    <title>i-airtable</title>
    <desc>Created with Sketch.</desc>
    <defs></defs>
    <g id="i-airtable" stroke="none" stroke-width="1" fill="none" fill-rule="evenodd" opacity="0.85">
        <g id="icon" transform="translate(35.000000, 50.000000)" fill="#FFFFFF">
            <path d="M83.5843354,2.02543218 L14.250334,30.7149597 C10.3949351,32.3102094 10.4346762,37.7868424 14.3145312,39.3250279 L83.9384391,66.9349214 C90.0565347,69.3611682 96.8685716,69.3611682 102.985648,66.9349214 L172.610575,39.3250279 C176.489411,37.7868424 176.530681,32.3102094 172.673244,30.7149597 L103.340771,2.02543218 C97.0147985,-0.591877714 89.9092887,-0.591877714 83.5843354,2.02543218" id="Fill-1"></path>
            <path d="M99.6390886,82.0121957 L99.6390886,150.984961 C99.6390886,154.265642 102.947283,156.512544 105.99665,155.303496 L183.578973,125.189402 C185.350001,124.487309 186.511665,122.776403 186.511665,120.871885 L186.511665,51.8981016 C186.511665,48.6174206 183.203471,46.3710279 180.154103,47.5800752 L102.57178,77.6936599 C100.801771,78.3957531 99.6390886,80.1071691 99.6390886,82.0121957" id="Fill-3"></path>
            <path d="M5.65357902,47.5410291 C5.65967014,47.5410074 5.66576214,47.5409965 5.67185496,47.5409965 C5.96904578,47.5409965 6.26814263,47.5669185 6.56324391,47.620603 C6.26197288,47.5658204 5.9566902,47.5399322 5.653579,47.5409931 C5.27631447,47.5423762 4.90242817,47.5854121 4.54398705,47.6664476 C4.05981355,47.7759551 3.60391002,47.9547974 3.20617275,48.193719 C3.09770744,48.2538307 2.99026983,48.3180875 2.88443733,48.3865161 C2.81842125,48.4291161 2.75307247,48.473439 2.68848436,48.5193872 C2.52092544,48.6384845 2.35850633,48.7685367 2.20366938,48.9096564 C2.17944539,48.9317048 2.15540341,48.9540205 2.13155232,48.9766033 C2.09741018,49.0091036 2.06361228,49.0421053 2.03024298,49.0756663 Z M84.0255809,80.5527068 C84.3906257,82.4665378 83.5862162,84.5742038 81.5231975,85.5707589 L58.4983092,96.6875751 L56.1607157,97.8176497 L7.55680721,121.10646 C4.47585083,122.592676 0.543517209,120.347812 0.543517209,116.92498 L0.543517209,52.1877023 C0.543517209,50.9496679 1.17830028,49.8807732 2.03013032,49.0757728 L58.498513,96.6875242 L81.5234013,85.570708 C83.2643684,84.7300303 84.1091221,83.0975871 84.1106506,81.4580108 C84.1109938,81.1548397 84.0824916,80.851423 84.0254871,80.5527246 Z" id="fill"></path>
            <path d="M5.67185496,47.5409965 C4.7786986,47.5409965 3.90337479,47.7748577 3.20586705,48.1936681 C2.78756621,48.4254913 2.38505992,48.7194738 2.02993728,49.0756154 L58.498513,96.6875242 L81.5234013,85.570708 C83.2643684,84.7300303 84.1091221,83.0975871 84.1106506,81.4580108 C84.1126886,79.657432 83.0972519,77.8481917 81.1361801,77.0701827 L7.43269261,47.867587 C6.86969331,47.6449348 6.26695287,47.5409965 5.67185496,47.5409965" id="Fill-8" fill-opacity="0.5"></path>
        </g>
    </g>
</svg>