<svg width="256" height="256" viewBox="0 0 256 256" version="1.1" xmlns="http://www.w3.org/2000/svg" xmlns:xlink="http://www.w3.org/1999/xlink">
<title>i-github</title>
<desc>Created using Figma</desc>
<g id="Canvas" transform="translate(-470 308)">
<clipPath id="clip-0" clip-rule="evenodd">
<path d="M 470 -308L 726 -308L 726 -52L 470 -52L 470 -308Z" fill="#FFFFFF"/>
</clipPath>
<g id="i-github" clip-path="url(#clip-0)">
<g id="Group">
<g id="Vector">
<use xlink:href="#path0_fill" transform="translate(529.536 -157.215)" fill="#FFFFFF" fill-opacity="0.85"/>
</g>
<g id="Vector">
<use xlink:href="#path1_fill" transform="translate(591.406 -180.413)" fill="#FFFFFF" fill-opacity="0.85"/>
</g>
<g id="Subtract">
<use xlink:href="#path2_fill" transform="translate(493 -260)" fill="#FFFFFF" fill-opacity="0.85"/>
</g>
<g id="Subtract">
<use xlink:href="#path3_fill" transform="translate(561.99 -204.342)" fill="#FFFFFF" fill-opacity="0.85"/>
</g>
<g id="Subtract">
<use xlink:href="#path4_fill" transform="translate(614.164 -204.342)" fill="#FFFFFF" fill-opacity="0.85"/>
</g>
</g>
</g>
</g>
<defs>
<path id="path0_fill" d="M 1.7499 0L 0.0351183 5.87593C 0.0351183 5.87593 -0.372354 7.99874 1.58861 8.40632C 3.71087 8.32141 3.54958 6.36842 3.38829 5.79102L 1.7499 0Z"/>
<path id="path1_fill" d="M 8.13154 2.45397C 8.13154 3.76162 7.07041 4.90793 5.67821 4.90793C 4.3709 4.90793 3.22488 3.84653 3.22488 2.45397C 3.22488 1.06141 4.28601 0 5.67821 0C 6.99401 0.00849123 8.13154 1.0699 8.13154 2.45397ZM 0.0499877 8.58464C -0.111304 8.17706 0.134872 7.76948 0.542345 7.60815C 0.949819 7.44681 1.35729 7.69305 1.51858 8.10063C 2.17224 9.90077 3.80213 11.0386 5.67821 11.0386C 7.55429 11.0386 9.19267 9.81586 9.83784 8.10063C 9.99913 7.69305 10.4066 7.44681 10.8141 7.60815C 11.2215 7.76948 11.4677 8.17706 11.3064 8.58464C 10.4915 10.9537 8.20794 12.584 5.66972 12.584C 3.1315 12.584 0.864935 10.9452 0.0499877 8.58464Z"/>
<path id="path2_fill" fill-rule="evenodd" d="M 208.839 78.0417L 209 77.303C 191.776 73.8725 174.136 73.7876 163.448 74.2801C 165.163 67.9881 165.731 60.6432 165.731 52.5595C 165.731 40.8841 161.326 31.5692 154.305 24.5469C 155.528 20.5476 157.166 11.6403 152.675 0.295983C 152.675 0.295983 144.679 -2.23441 126.47 9.93353C 119.364 8.13338 111.775 7.2418 104.186 7.2418C 95.8582 7.2418 87.4456 8.30322 79.5338 10.426C 60.739 -2.39576 52.4962 0.219567 52.4962 0.219567C 47.1057 13.6951 50.4588 23.7403 51.4351 26.1857C 45.0683 33.0467 41.2313 41.7841 41.2313 52.4831C 41.2313 60.5667 42.1311 67.8352 44.4146 74.1272C 33.642 73.7197 16.6555 73.881 0 77.2265L 0.161285 77.9653C 16.8168 74.6197 33.9646 74.5348 44.6523 74.9424C 45.1447 76.25 45.7134 77.5577 46.2822 78.7804C 35.6709 79.1031 17.6232 80.4957 0.322571 85.3951L 0.568756 86.1338C 18.0392 81.2344 36.2482 79.9268 46.7746 79.6041C 53.1414 91.3644 65.5523 99.0405 87.7596 101.41C 84.5762 103.532 81.3929 107.124 80.0856 113.246C 75.7562 115.284 62.2076 120.354 54.0412 106.309C 54.0412 106.309 49.4656 97.9791 40.7304 97.3253C 40.7304 97.3253 32.2413 97.1639 40.1616 102.632C 40.1616 102.632 45.7983 105.324 49.7118 115.369C 49.7118 115.369 54.8561 132.521 79.4319 126.968L 79.4319 144.528C 79.4319 144.528 78.9395 150.82 73.1415 152.858C 73.1415 152.858 69.7119 155.227 73.3877 156.535C 73.3877 156.535 89.3046 157.842 89.3046 144.774L 89.3046 125.499C 89.3046 125.499 88.651 117.823 92.4031 115.208L 92.4031 146.889C 92.4031 146.889 92.1569 154.48 88.2435 157.341C 88.2435 157.341 85.6289 161.995 91.342 160.772C 91.342 160.772 102.284 159.218 102.768 146.396L 103.014 114.299L 105.629 114.299L 105.875 146.396C 106.368 159.133 117.301 160.772 117.301 160.772C 123.015 162.079 120.4 157.341 120.4 157.341C 116.478 154.48 116.24 146.889 116.24 146.889L 116.24 115.446C 119.992 118.384 119.339 125.491 119.339 125.491L 119.339 144.766C 119.339 157.834 135.256 156.526 135.256 156.526C 138.932 155.219 135.502 152.849 135.502 152.849C 129.789 150.727 129.212 144.52 129.212 144.52L 129.212 119.207C 129.212 109.323 125.052 104.101 120.969 101.401C 144.645 99.032 155.994 91.4409 161.215 79.5192C 171.58 79.7654 190.282 81.0731 208.075 86.1338L 208.321 85.3951C 190.604 80.4107 172.073 79.1031 161.538 78.7804C 162.03 77.5577 162.438 76.3265 162.845 75.0273C 173.813 74.6112 191.53 74.6112 208.839 78.0417ZM 44.4911 99.2698C 44.4911 99.9236 43.7526 100.416 42.7763 100.416C 41.8765 100.416 41.0615 99.9236 41.0615 99.2698C 41.0615 98.616 41.8 98.1235 42.7763 98.1235C 43.761 98.132 44.4911 98.6244 44.4911 99.2698ZM 49.228 101.885C 49.228 102.539 48.4894 103.031 47.5132 103.031C 46.6133 103.031 45.7984 102.539 45.7984 101.885C 45.7984 101.231 46.5369 100.739 47.5132 100.739C 48.4979 100.747 49.228 101.231 49.228 101.885ZM 52.0888 105.316C 52.0888 105.969 51.3502 106.462 50.374 106.462C 49.4742 106.462 48.6592 105.969 48.6592 105.316C 48.6592 104.662 49.3978 104.169 50.374 104.169C 51.3502 104.093 52.0888 104.662 52.0888 105.316ZM 54.7034 109.238C 54.7034 109.892 53.9648 110.385 52.9886 110.385C 52.0888 110.385 51.2738 109.892 51.2738 109.238C 51.2738 108.585 52.0124 108.092 52.9886 108.092C 53.9648 108.007 54.7034 108.585 54.7034 109.238ZM 57.5557 112.83C 57.5557 113.484 56.8171 113.977 55.8409 113.977C 54.9411 113.977 54.1262 113.484 54.1262 112.83C 54.1262 112.176 54.8647 111.684 55.8409 111.684C 56.8171 111.684 57.5557 112.176 57.5557 112.83ZM 61.4777 116.014C 61.4777 116.668 60.7391 117.161 59.7629 117.161C 58.863 117.161 58.0481 116.668 58.0481 116.014C 58.0481 115.361 58.7866 114.868 59.7629 114.868C 60.7391 114.792 61.4777 115.361 61.4777 116.014ZM 66.9446 118.052C 66.9446 118.706 66.2061 119.199 65.2298 119.199C 64.33 119.199 63.515 118.706 63.515 118.052C 63.515 117.399 64.2535 116.906 65.2298 116.906C 66.2061 116.906 66.9446 117.399 66.9446 118.052ZM 72.4115 118.052C 72.4115 118.706 71.673 119.199 70.6967 119.199C 69.7969 119.199 68.9819 118.706 68.9819 118.052C 68.9819 117.399 69.7205 116.906 70.6967 116.906C 71.673 116.906 72.4115 117.399 72.4115 118.052ZM 77.9634 117.161C 77.9634 117.815 77.2248 118.307 76.2486 118.307C 75.3488 118.307 74.5338 117.815 74.5338 117.161C 74.5338 116.507 75.2723 116.014 76.2486 116.014C 77.1484 116.014 77.9634 116.507 77.9634 117.161ZM 150.629 68.1579C 150.629 62.1971 147.607 56.6438 142.548 51.9906C 136.439 46.4161 127.321 47.0842 116.625 47.8679C 112.592 48.1633 108.336 48.4752 103.931 48.4752C 99.5723 48.4752 95.3517 48.1753 91.3472 47.8908C 80.573 47.1253 71.3629 46.4709 65.2297 52.067C 60.1703 56.6438 57.2331 62.1971 57.2331 68.1579C 57.2331 93.0627 78.1331 96.9856 103.931 96.9856C 129.729 96.9856 150.629 96.2469 150.629 68.1579Z"/>
<path id="path3_fill" fill-rule="evenodd" d="M 9.71143 27.9368C 15.0935 27.9368 19.4229 21.7298 19.4229 13.9688C 19.4229 6.21628 15.102 -0.0757273 9.71143 0.000688762C 4.32941 0.000688762 0 6.20778 0 13.9688C 0 21.6448 4.32941 27.9368 9.71143 27.9368ZM 9.87274 23.445C 13.3872 23.445 16.3244 19.2843 16.3244 14.1386C 16.3244 8.99292 13.3872 4.83222 9.87274 4.83222C 6.35828 4.83222 3.42108 8.99292 3.42108 14.1386C 3.42108 19.2843 6.28186 23.445 9.87274 23.445Z"/>
<path id="path4_fill" fill-rule="evenodd" d="M 9.71143 27.9368C 15.0935 27.9368 19.4229 21.7298 19.4229 13.9688C 19.4229 6.21628 15.0086 -0.0757273 9.71143 0.000688762C 4.32941 0.000688762 0 6.20778 0 13.9688C 0 21.6448 4.32092 27.9368 9.71143 27.9368ZM 16.2394 14.1386C 16.2394 19.2843 13.3022 23.445 9.78778 23.445C 6.1969 23.445 3.33612 19.2843 3.33612 14.1386C 3.33612 8.99292 6.27332 4.83222 9.78778 4.83222C 13.3787 4.82372 16.2394 8.99292 16.2394 14.1386Z"/>
</defs>
</svg>
