<?xml version="1.0" encoding="UTF-8"?>
<svg width="24px" height="24px" viewBox="0 0 24 24" version="1.1" xmlns="http://www.w3.org/2000/svg" xmlns:xlink="http://www.w3.org/1999/xlink">
    <!-- Generator: Sketch 48.2 (47327) - http://www.bohemiancoding.com/sketch -->
    <title>dice</title>
    <desc>Created with Sketch.</desc>
    <defs></defs>
    <g id="stats_main-default-copy" stroke="none" stroke-width="1" fill="none" fill-rule="evenodd" transform="translate(-328.000000, -31.000000)">
        <g id="twenty-sided-dice" transform="translate(340.000000, 42.099998) rotate(45.000000) translate(-340.000000, -42.099998) translate(329.000000, 29.599998)" fill="#F0EAE3" fill-rule="nonzero">
            <path d="M11.1293475,0.923023614 C11.0856636,0.924509302 11.0354504,0.940492707 11.0079346,0.97906164 L4.82984436,8.371281 C4.72703319,8.49998451 4.72009487,8.52871037 4.85786567,8.53005056 L17.232732,8.49735392 C17.4028051,8.48345737 17.4035479,8.49197787 17.2934347,8.3479197 L11.2227123,0.955700337 C11.2101613,0.936155875 11.1730305,0.921930024 11.129313,0.923004468 L11.1293475,0.923023614 Z M12.3154477,1.58146698 L17.8864733,8.35727877 C17.9610977,8.44777558 17.9792829,8.45291422 18.1106285,8.3899754 L21.0479266,7.04504438 C21.2403232,6.95820819 21.2136651,6.94042587 21.0852863,6.85357436 L12.3143633,1.58091176 L12.3154477,1.58146698 Z M9.71442062,1.82895665 C9.71181683,1.82342744 9.66651865,1.85728812 9.56498639,1.92702741 L1.47717379,7.25054038 L4.00820501,8.39926861 C4.14023983,8.44279929 4.17968716,8.44512967 4.26503001,8.33855526 L9.60255746,1.96433887 C9.67778997,1.8772959 9.71713927,1.83444068 9.71462739,1.82891147 L9.71442062,1.82895665 Z M21.4770148,7.36262332 C21.451883,7.364423 21.4122281,7.37888242 21.3509381,7.4046438 L18.3343012,8.7821987 C18.2271937,8.8308236 18.2339329,8.89635166 18.2735939,8.97833256 L21.7805847,17.874084 L21.5284235,7.51178951 C21.5206504,7.3984713 21.51901,7.35935328 21.4770432,7.36235529 L21.4770148,7.36262332 Z M1.24791061,7.6381343 L0.925700001,17.7201391 L3.89569856,8.9966969 C3.93957156,8.86787085 3.93853923,8.86135374 3.8489974,8.81924902 L1.24797035,7.63782032 L1.24791061,7.6381343 Z M17.3959663,8.94569336 L4.74081027,8.97839 C4.55995449,8.97570197 4.5674442,8.97585514 4.65676165,9.12314507 L11.0823645,19.9617789 C11.190881,20.1271728 11.1792712,20.1219729 11.2925052,19.9525125 L17.4659239,9.09549901 C17.519957,9.00926015 17.5586492,8.94892129 17.3958706,8.94606478 L17.3959663,8.94569336 Z M17.900304,9.23055499 C17.8886444,9.23549452 17.8759057,9.27943414 17.8396013,9.34729641 L11.6241392,20.283955 C11.5563252,20.3994099 11.5401978,20.4407871 11.703524,20.4147109 L21.5710995,19.055842 C21.7275869,19.0201135 21.7228389,18.9641505 21.6691779,18.808337 L17.9457668,9.3520062 C17.9211457,9.26141749 17.9107735,9.22569204 17.8990733,9.23059328 L17.900304,9.23055499 Z M4.25494417,9.33328959 C4.24284347,9.34195176 4.23196118,9.3880418 4.20824377,9.4547025 L1.0561335,18.7333634 C1.00245955,18.9304928 0.996389673,19.0045551 1.19622473,19.0415672 L10.6242203,20.4051076 C10.8025029,20.4319013 10.7797045,20.3421075 10.7362902,20.2556733 L4.31949428,9.43159009 C4.27911112,9.34981596 4.26616495,9.32483495 4.25411862,9.33353465 L4.25494417,9.33328959 Z M1.80305574,19.5834223 L11.0541471,24.8322679 C11.1739289,24.9048606 11.2019195,24.87841 11.1848954,24.7528831 L10.9887615,21.0731237 C10.9834238,20.9543681 10.9673324,20.9060143 10.8440141,20.8863328 L1.80352289,19.5834452 L1.80305574,19.5834223 Z M20.9302079,19.5926734 L11.5389104,20.8909047 C11.415001,20.9091649 11.4373705,20.9699985 11.4361759,21.0590173 L11.6369812,24.8041777 C11.6473014,24.9178099 11.6439808,24.9585514 11.7817363,24.8882339 L20.9302079,19.5926734 Z" id="dice"></path>
        </g>
    </g>
</svg>